<?xml version="1.0" encoding="UTF-8"?>
<svg version="1.1" xmlns="http://www.w3.org/2000/svg" width="50" height="50">
<path d="M0 0 C2.64 0 5.28 0 8 0 C8.33 1.32 8.66 2.64 9 4 C19.89 4 30.78 4 42 4 C41.13659855 10.04381015 40.5728922 12.4369696 37.625 17.375 C37.01914062 18.41398437 36.41328125 19.45296875 35.7890625 20.5234375 C34 23 34 23 31 24 C27.54277237 24.258753 24.09143556 24.44288042 20.62890625 24.60546875 C17.01206879 24.47120355 17.01206879 24.47120355 14 26 C21.92 26.33 29.84 26.66 38 27 C38 28.65 38 30.3 38 32 C34.04903022 32.04939662 30.0981797 32.08571755 26.14697266 32.10986328 C24.1408864 32.12488107 22.13488676 32.15028981 20.12890625 32.17578125 C18.87207031 32.18222656 17.61523438 32.18867187 16.3203125 32.1953125 C15.15773926 32.20578613 13.99516602 32.21625977 12.79736328 32.22705078 C10 32 10 32 8 30 C7.78714184 26.87808039 7.94382291 24.24332126 8.6484375 21.19140625 C9.07195406 17.34681702 8.3158803 15.22771813 6.8125 11.6875 C6.38582031 10.63949219 5.95914062 9.59148438 5.51953125 8.51171875 C4.25364162 5.84563737 4.25364162 5.84563737 1.82421875 5.14453125 C0.92123047 5.07298828 0.92123047 5.07298828 0 5 C0 3.35 0 1.7 0 0 Z M12 9 C12.99 11.97 13.98 14.94 15 18 C24.06618135 19.22799761 24.06618135 19.22799761 32.109375 16.25390625 C34.22805401 12.85789866 34.22805401 12.85789866 35 9 C27.41 9 19.82 9 12 9 Z " fill="#000000" transform="translate(2,4)"/>
<path d="M0 0 C2.5 0.25 2.5 0.25 4.5 2.25 C4.75 4.75 4.75 4.75 4.5 7.25 C2.5 9.25 2.5 9.25 0 9.5 C-2.5 9.25 -2.5 9.25 -4.5 7.25 C-4.75 4.75 -4.75 4.75 -4.5 2.25 C-2.5 0.25 -2.5 0.25 0 0 Z " fill="#000000" transform="translate(35.5,36.75)"/>
<path d="M0 0 C2.5 0.25 2.5 0.25 4.5 2.25 C4.75 4.75 4.75 4.75 4.5 7.25 C2.5 9.25 2.5 9.25 0 9.5 C-2.5 9.25 -2.5 9.25 -4.5 7.25 C-4.75 4.75 -4.75 4.75 -4.5 2.25 C-2.5 0.25 -2.5 0.25 0 0 Z " fill="#000000" transform="translate(14.5,36.75)"/>
</svg>
