<?xml version="1.0" encoding="UTF-8"?>
<svg version="1.1" xmlns="http://www.w3.org/2000/svg" width="64" height="64">
<path d="M0 0 C0.73573242 -0.00478363 1.47146484 -0.00956726 2.22949219 -0.01449585 C3.77931873 -0.0178863 5.32921761 -0.00874342 6.87890625 0.01220703 C9.24381786 0.03899248 11.60398502 0.01243833 13.96875 -0.01953125 C15.47917708 -0.01622699 16.98960123 -0.0098204 18.5 0 C19.5533252 -0.01518173 19.5533252 -0.01518173 20.62792969 -0.03067017 C24.28046449 0.05600222 26.17985413 0.61502906 29.19287109 2.72119141 C31.72028455 6.33683843 31.97554485 9.14834968 31.9140625 13.4140625 C31.91884613 14.14979492 31.92362976 14.88552734 31.92855835 15.64355469 C31.9319488 17.19338123 31.92280592 18.74328011 31.90185547 20.29296875 C31.87507002 22.65788036 31.90162417 25.01804752 31.93359375 27.3828125 C31.93028949 28.89323958 31.9238829 30.40366373 31.9140625 31.9140625 C31.92418365 32.6162793 31.93430481 33.31849609 31.94473267 34.04199219 C31.85806028 37.69452699 31.29903344 39.59391663 29.19287109 42.60693359 C25.57722407 45.13434705 22.76571282 45.38960735 18.5 45.328125 C17.39640137 45.33530045 17.39640137 45.33530045 16.27050781 45.34262085 C14.72068127 45.3460113 13.17078239 45.33686842 11.62109375 45.31591797 C9.25618214 45.28913252 6.89601498 45.31568667 4.53125 45.34765625 C3.02082292 45.34435199 1.51039877 45.3379454 0 45.328125 C-1.0533252 45.34330673 -1.0533252 45.34330673 -2.12792969 45.35879517 C-5.78046449 45.27212278 -7.67985413 44.71309594 -10.69287109 42.60693359 C-13.22028455 38.99128657 -13.47554485 36.17977532 -13.4140625 31.9140625 C-13.41884613 31.17833008 -13.42362976 30.44259766 -13.42855835 29.68457031 C-13.4319488 28.13474377 -13.42280592 26.58484489 -13.40185547 25.03515625 C-13.37507002 22.67024464 -13.40162417 20.31007748 -13.43359375 17.9453125 C-13.43028949 16.43488542 -13.4238829 14.92446127 -13.4140625 13.4140625 C-13.42418365 12.7118457 -13.43430481 12.00962891 -13.44473267 11.28613281 C-13.35806028 7.63359801 -12.79903344 5.73420837 -10.69287109 2.72119141 C-7.07722407 0.19377795 -4.26571282 -0.06148235 0 0 Z " fill="#38CEED" transform="translate(22.75,9.3359375)"/>
<path d="M0 0 C5.03519144 0.04021718 7.79589846 1.42313641 11.875 4.3125 C13.72197319 8.00644639 13.35133033 12.28000487 12.875 16.3125 C10.70185442 19.41699369 8.31704812 20.84447585 4.875 22.3125 C2.55078125 22.54296875 2.55078125 22.54296875 0.1875 22.5 C-0.60011719 22.49355469 -1.38773438 22.48710938 -2.19921875 22.48046875 C-4.125 22.3125 -4.125 22.3125 -5.125 21.3125 C-5.22380797 19.83597336 -5.25579245 18.35482764 -5.2578125 16.875 C-5.25910156 15.98039062 -5.26039062 15.08578125 -5.26171875 14.1640625 C-5.25591797 12.75253906 -5.25591797 12.75253906 -5.25 11.3125 C-5.25386719 10.37148438 -5.25773437 9.43046875 -5.26171875 8.4609375 C-5.26042969 7.56632812 -5.25914063 6.67171875 -5.2578125 5.75 C-5.25612061 4.51056641 -5.25612061 4.51056641 -5.25439453 3.24609375 C-5.01607497 -0.31520988 -3.14769834 0.10136656 0 0 Z " fill="#963CC4" transform="translate(29.125,20.6875)"/>
<path d="M0 0 C2.07166201 -0.00218274 4.1427878 -0.02034887 6.21435547 -0.03930664 C7.53048828 -0.04124023 8.84662109 -0.04317383 10.20263672 -0.04516602 C11.40259277 -0.0492749 12.60254883 -0.05338379 13.83886719 -0.05761719 C17.27476608 0.18993672 20.00688694 0.95290509 23.21044922 2.18530273 C23.21044922 2.84530273 23.21044922 3.50530273 23.21044922 4.18530273 C18.73837211 5.90038667 15.01754003 6.44189413 10.23779297 6.45092773 C8.92617188 6.45350586 7.61455078 6.45608398 6.26318359 6.45874023 C5.58731201 6.45455078 4.91144043 6.45036133 4.21508789 6.44604492 C2.15009308 6.43531388 0.08596455 6.44597988 -1.97900391 6.45874023 C-3.94450195 6.45487305 -3.94450195 6.45487305 -5.94970703 6.45092773 C-7.14217041 6.44867188 -8.33463379 6.44641602 -9.56323242 6.4440918 C-12.7215473 6.19075742 -14.94455965 5.5352408 -17.78955078 4.18530273 C-17.45955078 3.19530273 -17.12955078 2.20530273 -16.78955078 1.18530273 C-11.72862144 -0.90246238 -5.36637217 -0.00063387 0 0 Z " fill="#000000" transform="translate(29.78955078125,57.814697265625)"/>
<path d="M0 0 C0.69287109 0.02255859 1.38574219 0.04511719 2.09960938 0.06835938 C3.79651573 0.12687339 5.49229861 0.2165452 7.1875 0.3125 C6.8125 2.25 6.8125 2.25 6.1875 4.3125 C3.31849945 5.74700027 0.45277087 5.69161083 -2.71875 5.93359375 C-5.02561098 6.14568777 -5.02561098 6.14568777 -6.8125 8.3125 C-7.15776588 11.10522024 -7.25506407 13.87268113 -7.37109375 16.68359375 C-7.86515987 19.62612916 -8.42340321 20.58084508 -10.8125 22.3125 C-11.4725 22.3125 -12.1325 22.3125 -12.8125 22.3125 C-12.94798815 19.58166098 -13.04679855 16.85758193 -13.125 14.125 C-13.16689453 13.35607422 -13.20878906 12.58714844 -13.25195312 11.79492188 C-13.34023656 7.68091367 -13.13154895 5.7886192 -10.78125 2.28125 C-7.10035627 -0.15976374 -4.25613281 -0.26473553 0 0 Z " fill="#73DEF3" transform="translate(22.8125,9.6875)"/>
<path d="M0 0 C0.13548815 2.73083902 0.23429855 5.45491807 0.3125 8.1875 C0.35439453 8.95642578 0.39628906 9.72535156 0.43945312 10.51757812 C0.52773656 14.63158633 0.31904895 16.5238808 -2.03125 20.03125 C-5.71214373 22.47226374 -8.55636719 22.57723553 -12.8125 22.3125 C-13.50537109 22.28994141 -14.19824219 22.26738281 -14.91210938 22.24414062 C-16.60901573 22.18562661 -18.30479861 22.0959548 -20 22 C-19.625 20.0625 -19.625 20.0625 -19 18 C-16.43106162 16.71553081 -14.23423663 16.67022856 -11.375 16.4375 C-9.87066406 16.31181641 -9.87066406 16.31181641 -8.3359375 16.18359375 C-7.17964844 16.09271484 -7.17964844 16.09271484 -6 16 C-5.96261719 15.09636719 -5.92523438 14.19273438 -5.88671875 13.26171875 C-5.82097656 12.08222656 -5.75523438 10.90273438 -5.6875 9.6875 C-5.62949219 8.51574219 -5.57148437 7.34398437 -5.51171875 6.13671875 C-5 3 -5 3 -3.58203125 1.08203125 C-2 0 -2 0 0 0 Z " fill="#2FB1CC" transform="translate(54,32)"/>
<path d="M0 0 C2.3431213 0.25561323 4.67843403 0.59270772 7 1 C8.39935013 3.79870027 8.25265405 5.90498792 8 9 C6.8125 10.875 6.8125 10.875 5 12 C3.35 12 1.7 12 0 12 C0 8.04 0 4.08 0 0 Z " fill="#3ACAEC" transform="translate(29,26)"/>
<path d="M0 0 C0.66 0.33 1.32 0.66 2 1 C1.2884375 1.99 1.2884375 1.99 0.5625 3 C-1.41317854 6.7933028 -1.64027463 9.75524068 -2 14 C-1.01 14 -0.02 14 1 14 C0.67 15.98 0.34 17.96 0 20 C-1.32 20.33 -2.64 20.66 -4 21 C-4.10812003 18.24894578 -4.18734945 15.50214913 -4.25 12.75 C-4.28351562 11.97269531 -4.31703125 11.19539063 -4.3515625 10.39453125 C-4.45112665 4.57002825 -4.45112665 4.57002825 -1.984375 1.453125 C-1.00210937 0.73382813 -1.00210937 0.73382813 0 0 Z " fill="#70DCF3" transform="translate(14,11)"/>
<path d="M0 0 C-0.144375 0.680625 -0.28875 1.36125 -0.4375 2.0625 C-1.06945909 5.36273082 -1.54313941 8.67144426 -2 12 C-2.99 12 -3.98 12 -5 12 C-5.36666667 4.66666667 -5.36666667 4.66666667 -3.625 1.5 C-2 0 -2 0 0 0 Z " fill="#EFFBFD" transform="translate(17,13)"/>
</svg>
